<svg width="50" height="50" viewBox="0 0 50 50" fill="none" xmlns="http://www.w3.org/2000/svg">
<path d="M15.4027 27.8372C14.5747 26.4022 12.7397 25.9102 11.3047 26.7392C9.8697 27.5672 9.37774 29.4022 10.2067 30.8372L15.2067 39.4972C19.3487 46.6712 28.5227 49.1302 35.6967 44.9872C42.8707 40.8452 45.3297 31.6712 41.1867 24.4972L37.1867 17.5692C36.3587 16.1342 34.5237 15.6422 33.0887 16.4712C31.6537 17.2992 31.1627 19.1342 31.9907 20.5692L30.9907 18.8372C30.1627 17.4022 28.3277 16.9102 26.8927 17.7392C25.4577 18.5672 24.9657 20.4022 25.7947 21.8372L24.7947 20.1052C23.9667 18.6702 22.1317 18.1782 20.6967 19.0072C19.2617 19.8352 18.7697 21.6702 19.5987 23.1052L12.5987 10.9812C11.7707 9.54619 9.93574 9.05419 8.50074 9.88319C7.06574 10.7112 6.57372 12.5462 7.40272 13.9812L18.9027 33.9002L15.4027 27.8372Z" stroke="black" stroke-width="4" stroke-miterlimit="10" stroke-linecap="round" stroke-linejoin="round"/>
<path d="M16.1992 6.39768C24.4642 2.17868 34.8392 3.52768 41.7552 10.4437" stroke="black" stroke-width="2" stroke-miterlimit="10" stroke-linecap="round" stroke-linejoin="round"/>
<path d="M16.1992 3V7L20.1992 8" stroke="black" stroke-width="2" stroke-miterlimit="10" stroke-linecap="round" stroke-linejoin="round"/>
</svg>
