<svg width="50" height="57" viewBox="0 0 50 57" fill="none" xmlns="http://www.w3.org/2000/svg">
<path d="M28.6667 15.3333C28.6667 7.96954 22.6971 2 15.3333 2C7.96954 2 2 7.96954 2 15.3333V32C2 39.3638 7.96954 45.3333 15.3333 45.3333C22.6971 45.3333 28.6667 39.3638 28.6667 32V15.3333Z" stroke="#0A0A0A" stroke-width="3.33333"/>
<path d="M15.333 13.668V20.3346" stroke="#0A0A0A" stroke-width="3.33333" stroke-linecap="round"/>
<path opacity="0.5" d="M8.66602 15.332C8.66602 15.332 8.66602 10.332 15.3327 10.332C21.9993 10.332 21.9993 15.332 21.9993 15.332" stroke="#0A0A0A" stroke-width="2.5" stroke-linecap="round"/>
<path opacity="0.5" d="M8.66602 18.668C8.66602 18.668 8.66602 23.668 15.3327 23.668C21.9993 23.668 21.9993 18.668 21.9993 18.668" stroke="#0A0A0A" stroke-width="2.5" stroke-linecap="round"/>
<path d="M15.333 32.0013V28.668M15.333 28.668L12.833 31.168M15.333 28.668L17.833 31.168" stroke="#0A0A0A" stroke-width="2.5" stroke-linecap="round" stroke-linejoin="round"/>
<path d="M15.333 35.332V38.6654M15.333 38.6654L12.833 36.1654M15.333 38.6654L17.833 36.1654" stroke="#0A0A0A" stroke-width="2.5" stroke-linecap="round" stroke-linejoin="round"/>
<path d="M30.6497 42.3488L28.6997 44.2987C28.3097 44.6887 28.3097 45.3187 28.6997 45.7087L30.6497 47.6587C31.1397 48.1487 31.9297 48.1487 32.4197 47.6587C32.8997 47.1687 32.8997 46.3887 32.4197 45.8987L31.5397 44.9987L32.4197 44.1087C32.8997 43.6187 32.8997 42.8388 32.4197 42.3488C31.9397 41.8588 31.1397 41.8588 30.6497 42.3488ZM43.5797 42.3488C43.0997 42.8388 43.0997 43.6187 43.5797 44.1087L44.4597 44.9987L43.5797 45.8888C43.0997 46.3788 43.0997 47.1587 43.5797 47.6487C44.0697 48.1387 44.8597 48.1387 45.3497 47.6487L47.2997 45.6987C47.6897 45.3087 47.6897 44.6787 47.2997 44.2887L45.3497 42.3387C44.8597 41.8587 44.0597 41.8588 43.5797 42.3488V42.3488ZM37.9997 51.4587L37.1097 50.5787C36.6197 50.0987 35.8397 50.0987 35.3497 50.5787C34.8597 51.0687 34.8597 51.8588 35.3497 52.3488L37.2997 54.2987C37.6897 54.6887 38.3197 54.6887 38.7097 54.2987L40.6597 52.3488C41.1497 51.8588 41.1497 51.0687 40.6597 50.5787C40.1697 50.0987 39.3897 50.0987 38.8997 50.5787L37.9997 51.4587V51.4587ZM35.3497 39.4187C35.8397 39.8987 36.6197 39.8987 37.1097 39.4187L37.9997 38.5387L38.8897 39.4187C39.3797 39.8987 40.1597 39.8987 40.6497 39.4187C41.1397 38.9287 41.1397 38.1388 40.6497 37.6488L38.6997 35.6987C38.3097 35.3088 37.6797 35.3088 37.2897 35.6987L35.3497 37.6488C34.8597 38.1388 34.8597 38.9387 35.3497 39.4187Z" fill="#0A0A0A"/>
<path d="M38 48C39.6569 48 41 46.6569 41 45C41 43.3431 39.6569 42 38 42C36.3431 42 35 43.3431 35 45C35 46.6569 36.3431 48 38 48Z" fill="#0A0A0A"/>
</svg>
