<svg width="24" height="24" viewBox="0 0 24 24" fill="none" xmlns="http://www.w3.org/2000/svg">
<path d="M13.9841 6.01391C13.9841 3.79891 12.2051 2.00391 10.0111 2.00391C7.81711 2.00391 6.03711 3.79891 6.03711 6.01391" stroke="white" stroke-width="1.5" stroke-linecap="round" stroke-linejoin="round"/>
<path d="M9.37641 21.9948L9.27241 20.8988C8.78441 18.8808 8.11841 18.6148 7.03341 17.1688C6.54341 16.5168 5.52041 15.5918 4.68341 14.3418C4.12641 13.5098 4.87041 11.6168 6.56641 12.1938C6.84841 12.2898 7.08641 12.4828 7.29641 12.6938L8.94241 14.3478C8.92941 12.0098 8.95941 7.25083 8.92241 5.79083C8.88641 4.33083 11.4204 3.86083 11.5704 5.85683V10.3488M11.5704 10.3488V11.2138M11.5704 10.3488C12.3984 9.25083 13.9664 9.21183 14.1954 11.0498M14.1954 11.0498C14.2324 11.3498 14.2354 11.6998 14.1954 12.1028M14.1954 11.0498C14.6134 9.76583 16.4534 10.2758 16.8194 11.7698C16.9054 12.1248 16.8194 12.5348 16.8544 13.0078M16.8194 11.7708C17.0564 11.0508 19.6844 10.9968 19.4354 13.7798L19.5004 16.3038C19.4004 17.8108 19.1784 18.4418 18.6374 19.1708C18.3574 19.5478 17.9884 19.8808 17.8474 20.3298C17.7304 20.7058 17.6554 21.2568 17.7374 22.0018" stroke="white" stroke-width="1.5" stroke-linecap="round" stroke-linejoin="round"/>
</svg>
